Coordinates
version=1
nRows=9
nColumns=24
inDegrees=yes

Units are S.I. units (second, meters, Newtons, ...)
Angles are in degrees.

endheader
time	pelvis_tilt	pelvis_list	pelvis_rotation	pelvis_tx	pelvis_ty	pelvis_tz	hip_flexion_r	hip_adduction_r	hip_rotation_r	knee_angle_r	ankle_angle_r	subtalar_angle_r	mtp_angle_r	hip_flexion_l	hip_adduction_l	hip_rotation_l	knee_angle_l	ankle_angle_l	subtalar_angle_l	mtp_angle_l	lumbar_extension	lumbar_bending	lumbar_rotation
      3.75500000	    -20.07010533	     -2.29380161	     10.95920207	     -1.78358672	     -0.03263898	     -0.28608729	     48.25659184	     -1.66594332	     -1.76135648	     -8.49718616	     20.24484925	     -1.50720862	   -117.81244269	     -0.60969382	      1.55128230	     17.90513422	    -12.74719417	     19.34645024	     13.76107234	    -63.38073975	     12.39361063	     -2.52806789	    -11.40429751
      3.76000000	    -19.98062363	     -2.34351887	     11.08929677	     -1.77504359	     -0.03414312	     -0.28600856	     48.32613752	     -1.60152881	     -1.50766527	     -9.47974049	     20.38668920	     -1.71259404	   -117.91038876	     -0.95586827	      1.40153953	     18.07042341	    -13.32837786	     19.12744143	     14.04313300	    -63.27144559	     12.37802028	     -2.49828227	    -11.58183395
      3.76500000	    -20.04732421	     -2.35407366	     11.14616504	     -1.76639713	     -0.03584008	     -0.28596226	     48.56598613	     -1.53889099	     -1.27064667	    -10.43855501	     20.55680257	     -2.17214684	   -120.49054906	     -1.15507788	      1.35430398	     18.14632220	    -13.84092213	     16.92596146	     14.25630992	    -52.97232093	     12.54256107	     -2.50203248	    -11.68670534
      3.77000000	    -19.82661034	     -2.42790242	     11.25707923	     -1.75759415	     -0.03714874	     -0.28585637	     48.44783639	     -1.38151959	     -1.04936118	    -11.47301411	     20.49739253	     -2.48634459	   -120.52792315	     -1.57499402	      1.14627831	     18.08472867	    -14.52972946	     16.62454435	     14.73523027	    -52.88551014	     12.41146767	     -2.40891528	    -11.84929234
      3.77500000	    -19.64113596	     -2.61636635	     11.24019162	     -1.74842477	     -0.03855592	     -0.28551004	     48.33879322	     -1.00026816	     -0.77042848	    -12.45886455	     20.19833439	     -3.03790374	   -120.65498820	     -1.88319880	      0.78498868	     17.46691287	    -15.33762761	     16.34001908	     15.63583116	    -52.45910017	     12.39498120	     -2.18549838	    -11.90624021
      3.78000000	    -19.71939690	     -2.60768701	     11.17648037	     -1.73941435	     -0.04015314	     -0.28539703	     48.55222616	     -0.82010933	     -0.40411759	    -13.47704352	     19.79740646	     -3.70857800	   -122.85449693	     -2.16266988	      0.75789437	     17.43227098	    -15.40432120	     11.62893516	     15.14946197	    -32.34984967	     12.60623749	     -2.16448564	    -11.85021507
      3.78500000	    -19.37201364	     -2.84453179	     11.17361292	     -1.73016683	     -0.04122003	     -0.28514593	     48.27594744	     -0.38856277	     -0.41193741	    -14.49217092	     19.10208231	     -4.19921166	   -122.84163254	     -2.57316427	      0.31823060	     16.82576840	    -16.27812246	     11.14573830	     16.04114908	    -31.94769080	     12.42103804	     -1.84257564	    -11.91683654
      3.79000000	    -19.23453504	     -3.01010796	     11.08500303	     -1.72087119	     -0.04243491	     -0.28486540	     48.25861433	      0.01550807	     -0.28804314	    -15.54487659	     18.15234220	     -4.83080004	   -123.13176373	     -2.92050359	     -0.00969238	     16.11870320	    -16.42840794	      7.16405422	     15.81885147	    -16.57365416	     12.45773274	     -1.60553805	    -11.85444267
      3.79500000	    -19.17634773	     -3.23221216	     11.00615905	     -1.71161923	     -0.04365773	     -0.28450507	     48.36119236	      0.44782739	     -0.21545503	    -16.62596040	     16.94930412	     -5.50816075	   -123.09528364	     -2.98195062	     -0.38853981	     15.28853207	    -17.09429231	      4.99000270	     16.22830891	     -9.75175792	     12.58201213	     -1.33809491	    -11.80984639
